<?xml version="1.0" encoding="UTF-8" standalone="yes"?>
<svg xmlns="http://www.w3.org/2000/svg" version="1.2" baseProfile="tiny-ps"
     width="900" height="900" viewBox="0 0 900 900" preserveAspectRatio="xMidYMid meet">
  <title>BIMI Logo</title>
  <g transform="translate(0,900) scale(0.1,-0.1)" fill="#000000" stroke="none">
    <path d="M2300 6728 c-25 -5 -65 -13 -90 -17 -164 -32 -363 -159 -473 -303 -95 -125 -135 -211 -168 -362 -19 -87 -19 -138 -17 -1935 l3 -1846 850 0 850 0 0 1885 c0 1570 -2 1893 -14 1935 -51 184 -141 329 -281 450 -30 26 -64 51 -75 56 -11 5 -33 18 -50 29 -16 11 -37 22 -45 26 -8 3 -23 10 -32 15 -67 35 -269 80 -356 78 -31 -1 -77 -5 -102 -11z"/>
    <path d="M4380 6728 c-25 -5 -65 -13 -90 -18 -137 -26 -285 -109 -404 -227 -97 -96 -174 -221 -213 -343 -43 -139 -43 -138 -43 -2045 0 -1395 3 -1814 12 -1823 17 -17 1679 -17 1696 0 9 9 12 428 12 1823 0 1529 -2 1827 -14 1908 -8 53 -20 105 -25 116 -6 11 -11 27 -11 35 0 22 -58 140 -101 206 -81 123 -234 249 -369 304 -90 36 -117 44 -205 60 -98 18 -175 19 -245 4z"/>
    <path d="M6420 6721 c-84 -18 -163 -42 -197 -60 -10 -5 -25 -12 -33 -15 -8 -4 -28 -15 -45 -26 -16 -11 -39 -24 -50 -29 -22 -10 -120 -92 -149 -125 -107 -122 -173 -246 -211 -396 -14 -59 -16 -240 -13 -1935 l3 -1870 850 0 850 0 3 1846 c2 1797 2 1848 -17 1935 -24 107 -40 153 -82 231 -92 171 -251 318 -419 387 -89 36 -116 44 -205 60 -111 20 -176 19 -285 -3z"/>
  </g>
</svg>